<svg xmlns="http://www.w3.org/2000/svg" version="1.0" preserveAspectRatio="xMidYMid meet" viewBox="-0.02 0 1349.17 1351.05">
<metadata>
Created by potrace 1.10, written by Peter Selinger 2001-2011
</metadata>
<g transform="translate(0.000000,2304.000000) scale(0.100000,-0.100000)" fill="#000000" stroke="none">
<path d="M6323 23028 c1 -9 -27 -15 -103 -21 -241 -17 -598 -66 -825 -114 -209 -43 -233 -49 -385 -88 -260 -68 -528 -156 -770 -253 -192 -77 -178 -71 -347 -148 -78 -36 -304 -148 -367 -183 -28 -16 -78 -43 -111 -61 -167 -92 -488 -296 -643 -409 -89 -66 -301 -229 -338 -260 -17 -14 -52 -44 -80 -66 -143 -117 -475 -436 -649 -625 -223 -242 -534 -652 -715 -943 -30 -48 -63 -100 -72 -115 -9 -15 -23 -38 -31 -52 -7 -14 -43 -77 -79 -140 -90 -159 -186 -350 -283 -565 -146 -325 -274 -699 -369 -1082 -39 -153 -41 -165 -91 -418 -7 -38 -21 -122 -30 -185 -9 -63 -20 -143 -26 -176 -13 -87 -12 -1604 2 -1696 33 -230 41 -281 55 -358 45 -247 114 -530 180 -740 14 -47 32 -105 40 -130 15 -51 58 -177 79 -232 8 -21 21 -55 29 -75 22 -58 105 -260 138 -333 65 -146 86 -189 144 -305 34 -67 76 -148 94 -181 18 -32 46 -84 63 -114 16 -30 35 -62 41 -70 6 -8 20 -31 30 -50 55 -101 252 -395 379 -565 236 -315 364 -463 637 -735 118 -119 235 -233 260 -255 105 -94 272 -234 345 -290 43 -33 91 -71 108 -85 71 -59 436 -307 572 -389 39 -23 77 -46 85 -51 202 -126 712 -375 950 -465 178 -67 355 -130 405 -145 17 -5 53 -16 80 -24 160 -49 294 -87 335 -96 19 -5 64 -15 100 -23 120 -28 255 -58 285 -63 17 -3 66 -11 110 -19 743 -130 1469 -140 2210 -29 318 48 613 113 940 210 62 18 344 110 376 123 13 5 42 16 64 24 648 244 1214 560 1780 995 55 42 102 79 105 82 3 3 30 25 60 50 30 25 66 54 79 65 137 112 475 439 616 595 174 193 388 458 508 630 57 82 233 346 241 361 3 8 14 26 24 41 20 31 64 105 100 168 14 25 44 79 67 120 37 65 201 398 240 485 40 90 118 284 155 385 23 63 48 131 55 150 18 47 98 308 120 390 10 36 23 85 30 110 47 165 106 457 150 741 22 144 22 1756 0 1898 -54 337 -99 555 -165 796 -12 44 -28 103 -35 130 -8 28 -28 93 -45 145 -18 52 -36 109 -40 125 -5 17 -22 66 -38 110 -255 693 -572 1272 -1007 1842 -309 403 -653 756 -1111 1139 -143 119 -672 494 -697 494 -3 0 -32 17 -64 38 -32 21 -87 55 -123 74 -36 20 -89 49 -116 66 -63 37 -429 217 -544 267 -47 21 -98 44 -115 51 -48 21 -255 100 -320 123 -355 122 -497 163 -820 236 -286 66 -689 125 -943 140 -109 6 -135 12 -126 26 3 5 -172 9 -420 9 -336 0 -425 -3 -423 -12z m-1349 -2484 c14 -6 16 -110 16 -1085 l0 -1079 -22 -5 c-13 -3 -678 -4 -1478 -3 l-1455 3 -3 1075 c-1 591 0 1081 3 1088 3 9 305 12 1464 12 803 0 1466 -3 1475 -6z m3324 -6 c17 -17 17 -2139 0 -2156 -9 -9 -356 -12 -1499 -12 -818 0 -1494 3 -1503 6 -14 6 -16 110 -16 1084 0 853 3 1079 13 1083 6 3 683 6 1503 6 1146 1 1493 -2 1502 -11z m3230 0 c17 -17 17 -2139 0 -2156 -9 -9 -346 -12 -1454 -12 -793 0 -1449 3 -1458 6 -14 6 -16 110 -16 1083 0 593 3 1081 7 1084 3 4 659 7 1458 7 1115 0 1454 -3 1463 -12z m-6550 -2210 c9 -9 12 -258 12 -1059 l0 -1047 -22 -6 c-30 -8 -2902 -8 -2922 0 -14 6 -16 108 -16 1058 0 579 3 1056 7 1059 3 4 664 7 1468 7 1123 0 1464 -3 1473 -12z m3320 0 c17 -17 17 -2089 0 -2106 -9 -9 -354 -12 -1492 -12 -815 0 -1491 3 -1503 6 l-23 6 0 1047 c0 801 3 1050 12 1059 17 17 2989 17 3006 0z m3232 -7 c7 -13 10 -361 10 -1056 l0 -1035 -26 -10 c-28 -11 -2871 -15 -2898 -4 -14 6 -16 107 -16 1049 0 574 3 1050 6 1059 6 15 143 16 1460 16 1427 0 1453 0 1464 -19z m-6557 -2143 c16 -12 17 -84 15 -1058 l-3 -1045 -1475 0 -1475 0 -3 1044 c-1 763 1 1047 9 1057 16 20 2906 21 2932 2z m3327 -7 c12 -24 14 -2069 2 -2089 -7 -10 -316 -12 -1513 -10 l-1504 3 -3 1045 c-2 974 -1 1046 15 1058 13 9 330 12 1505 12 1460 0 1487 0 1498 -19z m3220 9 c13 -8 15 -136 18 -1037 1 -565 0 -1038 -3 -1051 l-5 -22 -1463 2 -1462 3 -3 1044 c-1 763 1 1047 9 1057 10 12 251 14 1453 14 890 0 1447 -4 1456 -10z m-6622 -2633 c14 -11 17 -213 3 -235 -11 -18 -38 9 -47 46 -12 46 -66 119 -103 140 -40 22 -225 39 -250 23 -10 -7 -13 -40 -13 -141 1 -73 5 -137 11 -143 15 -15 76 10 110 45 17 18 37 55 47 89 10 34 24 59 31 59 11 0 13 -41 11 -210 -2 -123 -7 -211 -13 -213 -5 -1 -19 26 -31 61 -12 35 -34 76 -49 92 -28 29 -91 48 -107 32 -15 -15 -12 -253 4 -264 20 -14 153 1 212 22 66 25 120 81 151 156 38 93 50 79 53 -65 2 -82 -1 -128 -9 -137 -17 -21 -709 -21 -709 0 0 8 14 18 32 22 47 10 75 31 87 66 17 49 14 441 -3 483 -14 34 -17 35 -93 51 -13 2 -23 11 -23 19 0 13 47 15 328 17 332 3 347 2 370 -15z m817 -14 c77 -41 111 -98 100 -169 -11 -79 -118 -144 -235 -144 -97 0 -88 -29 21 -69 48 -18 61 -29 94 -78 55 -83 120 -143 153 -143 34 0 57 -14 48 -29 -5 -7 -49 -11 -125 -11 l-119 0 -54 73 c-30 39 -71 97 -91 127 -70 106 -89 123 -138 125 -79 3 -81 -1 -77 -127 3 -106 4 -111 31 -134 15 -13 38 -24 50 -24 29 0 51 -15 43 -29 -5 -7 -71 -11 -206 -11 -135 0 -201 4 -206 11 -8 14 14 29 44 29 13 0 37 13 53 30 l30 29 -3 245 c-3 223 -5 246 -22 265 -12 13 -31 21 -52 21 -34 0 -49 12 -41 33 3 9 82 11 333 7 312 -5 331 -6 369 -27z m1881 16 c17 -14 20 -224 4 -234 -17 -10 -39 14 -50 54 -11 43 -70 115 -109 135 -31 16 -220 30 -239 17 -12 -7 -17 -120 -13 -262 1 -25 28 -30 69 -13 48 20 77 56 99 126 10 32 24 58 31 58 9 0 12 -49 12 -210 0 -169 -3 -210 -13 -210 -8 0 -21 25 -32 59 -11 38 -29 71 -49 90 -34 32 -99 51 -111 31 -4 -7 -7 -66 -7 -132 0 -89 4 -123 14 -130 16 -11 136 -2 193 14 85 24 152 99 189 211 3 10 12 17 19 15 8 -3 13 -42 15 -136 3 -130 2 -132 -20 -137 -13 -3 -173 -4 -357 -3 -242 2 -335 6 -338 15 -2 6 11 14 29 18 44 10 72 30 86 61 8 16 12 100 12 245 0 273 -1 275 -97 294 -37 7 -43 22 -14 33 34 12 661 4 677 -9z m529 7 c33 -9 3 -27 -55 -34 -42 -6 -57 -13 -74 -35 -20 -27 -21 -40 -21 -287 0 -142 4 -262 8 -267 16 -15 189 -7 228 10 75 33 124 93 164 200 10 26 24 47 32 47 11 0 13 -27 11 -147 l-3 -148 -355 -3 c-195 -1 -362 0 -370 4 -13 4 -12 8 4 20 11 8 31 14 44 14 13 0 37 13 53 29 l29 29 0 240 c0 227 -1 241 -21 266 -13 17 -30 26 -49 26 -16 0 -35 3 -44 6 -21 8 -20 32 1 36 26 5 396 0 418 -6z m1042 -1 c10 -3 13 -37 13 -125 0 -106 -2 -121 -16 -118 -9 2 -22 19 -28 39 -20 58 -48 99 -88 132 -34 27 -47 31 -143 39 -149 12 -145 16 -145 -136 0 -107 2 -125 18 -140 17 -15 22 -15 55 -1 45 19 93 77 100 122 6 36 23 63 38 63 5 0 9 -95 9 -211 0 -192 -1 -210 -17 -207 -11 2 -21 21 -29 52 -17 65 -61 118 -108 129 -60 15 -66 2 -66 -129 0 -144 4 -149 104 -140 152 14 222 59 281 183 23 49 39 73 46 66 6 -6 8 -66 7 -144 l-3 -134 -354 0 c-269 0 -355 3 -358 12 -3 7 8 15 24 18 43 10 73 27 86 50 8 14 12 94 12 257 l0 236 -24 26 c-17 18 -35 26 -57 26 -36 0 -51 14 -36 33 8 9 92 11 339 10 180 -2 333 -5 340 -8z m354 5 c146 0 179 -3 179 -14 0 -9 -16 -16 -45 -20 -24 -4 -47 -11 -50 -17 -8 -11 23 -64 96 -166 76 -106 82 -111 111 -80 61 64 137 177 138 204 0 30 -26 53 -60 53 -38 0 -60 9 -60 26 0 8 3 14 8 14 141 4 306 0 314 -8 16 -16 2 -29 -40 -36 -55 -8 -119 -68 -224 -209 l-88 -118 0 -92 c0 -124 23 -160 108 -170 48 -5 57 -10 47 -26 -8 -14 -451 -15 -460 -2 -8 13 27 31 60 31 68 0 95 46 95 160 0 80 0 82 -47 148 -102 146 -183 248 -211 265 -17 9 -44 17 -61 17 -20 0 -34 6 -38 16 -7 18 15 36 35 29 8 -3 94 -5 193 -5z m-5511 -29 c66 -34 95 -75 95 -132 0 -39 -5 -53 -30 -79 -16 -17 -45 -38 -63 -46 -41 -17 -40 -44 3 -56 47 -12 103 -64 116 -108 30 -98 -30 -172 -166 -204 -58 -14 -115 -16 -340 -14 -265 3 -313 10 -235 33 56 16 77 32 89 66 7 20 11 114 11 241 0 232 -8 273 -54 283 -14 3 -37 7 -51 10 -14 3 -25 12 -25 21 0 14 34 15 303 12 294 -3 303 -4 347 -27z m2366 18 c9 -15 -14 -29 -47 -29 -15 0 -37 -9 -50 -19 -23 -19 -24 -23 -24 -172 0 -100 4 -154 11 -156 6 -2 22 7 37 21 14 13 54 46 89 72 146 113 198 163 198 194 0 34 -31 60 -71 60 -27 0 -54 21 -42 33 12 12 371 8 379 -4 8 -14 -14 -29 -45 -29 -27 0 -99 -42 -186 -109 -92 -70 -105 -83 -105 -103 0 -19 167 -278 212 -330 13 -14 47 -34 76 -43 94 -31 61 -40 -156 -43 -175 -2 -202 0 -202 13 0 10 14 17 40 21 51 8 67 26 52 60 -24 52 -143 224 -155 224 -7 0 -40 -22 -72 -48 l-60 -48 -3 -60 c-4 -76 18 -109 84 -125 25 -7 43 -17 41 -23 -3 -8 -65 -11 -205 -11 -206 0 -245 8 -167 33 22 7 50 24 63 38 21 25 22 30 22 263 0 224 -1 240 -20 264 -14 18 -32 27 -58 29 -26 2 -38 8 -40 21 -3 16 11 17 197 17 136 0 202 -4 207 -11z m-1634 -1161 c221 -102 286 -363 131 -529 -202 -216 -597 -148 -696 121 -64 172 64 377 268 431 17 5 77 7 135 5 88 -2 114 -6 162 -28z m3457 -2 c61 -31 145 -106 169 -151 76 -140 50 -292 -69 -399 -212 -191 -567 -115 -668 142 -59 148 24 325 188 403 72 34 98 38 216 35 96 -3 117 -7 164 -30z m-4131 -123 c2 -115 0 -143 -11 -143 -8 0 -22 25 -33 60 -47 146 -123 200 -286 200 -114 0 -108 8 -108 -136 l0 -124 26 -6 c59 -15 127 48 140 129 5 28 11 37 23 35 14 -3 16 -26 16 -183 0 -157 -2 -180 -16 -183 -12 -2 -18 7 -22 33 -12 72 -97 146 -148 130 -17 -6 -19 -17 -19 -121 0 -114 0 -116 29 -145 23 -22 39 -29 70 -29 42 0 63 -16 40 -31 -8 -5 -104 -8 -214 -6 -181 2 -200 4 -203 20 -3 13 3 17 29 17 22 0 42 9 61 27 l28 27 0 242 c0 229 -1 243 -21 268 -13 17 -34 28 -60 32 -23 4 -39 12 -39 20 0 12 58 14 358 12 l357 -3 3 -142z m1422 132 c0 -5 -22 -12 -50 -15 -37 -4 -57 -13 -78 -33 l-27 -27 0 -268 0 -267 104 -3 c90 -2 109 0 145 19 58 30 100 81 137 166 48 112 59 100 59 -67 0 -127 -2 -140 -19 -150 -21 -11 -658 -14 -699 -4 -29 8 -23 28 9 32 55 6 71 14 89 45 18 29 20 51 20 261 l0 228 -34 34 c-26 26 -42 34 -70 34 -26 0 -36 4 -36 15 0 13 29 15 225 13 141 -2 225 -7 225 -13z m780 0 c0 -10 -10 -15 -31 -15 -22 0 -41 -10 -65 -34 l-35 -35 3 -142 c2 -84 7 -144 13 -146 9 -3 187 134 283 218 66 56 50 119 -33 137 -21 4 -40 13 -43 20 -3 10 39 12 190 10 124 -2 191 -7 188 -13 -3 -5 -27 -19 -55 -30 -48 -20 -134 -74 -163 -102 -7 -7 -33 -27 -57 -44 -46 -33 -62 -59 -49 -81 4 -7 53 -83 110 -168 102 -156 136 -190 186 -190 31 0 41 -10 27 -27 -17 -20 -357 -19 -385 1 -22 17 -12 23 46 28 58 5 52 36 -33 163 -40 60 -79 111 -88 113 -8 1 -23 -5 -34 -15 -11 -10 -39 -33 -62 -51 -42 -33 -43 -35 -43 -94 0 -53 3 -63 29 -89 20 -19 40 -29 60 -29 34 0 51 -18 30 -31 -16 -10 -351 -12 -387 -3 -34 10 -21 28 25 35 89 12 95 32 91 313 l-3 228 -33 29 c-20 18 -43 29 -62 29 -29 0 -45 12 -33 24 3 3 98 6 210 6 174 0 203 -2 203 -15z m970 0 c0 -11 -11 -15 -40 -15 -53 0 -94 -22 -109 -57 -8 -19 -11 -107 -9 -283 l3 -255 102 -3 c86 -2 109 0 142 17 57 30 116 102 142 176 22 64 41 81 53 49 3 -9 6 -71 6 -139 0 -113 -2 -125 -19 -135 -24 -12 -690 -14 -710 -1 -21 14 -3 31 32 31 21 0 42 9 60 25 l27 26 0 248 c0 245 0 248 -23 269 -12 12 -40 25 -62 30 -21 4 -40 13 -43 20 -3 9 49 12 222 12 194 0 226 -2 226 -15z m1991 -13 c61 -31 92 -73 96 -137 7 -95 -51 -145 -206 -174 -46 -9 -86 -21 -88 -27 -2 -6 25 -22 59 -34 79 -29 79 -29 134 -111 60 -90 95 -119 145 -119 40 0 55 -22 23 -34 -20 -8 -192 -8 -221 0 -12 3 -39 31 -60 62 -80 119 -173 240 -188 246 -31 12 -102 6 -115 -9 -9 -10 -11 -45 -8 -116 4 -96 5 -103 31 -125 18 -15 41 -24 63 -24 36 0 48 -22 18 -34 -26 -10 -351 -7 -379 4 -34 13 -23 30 18 30 44 0 74 23 87 68 16 58 13 425 -4 466 -17 40 -51 66 -88 66 -27 0 -43 12 -31 24 4 4 156 5 338 4 321 -3 331 -4 376 -26z m924 -101 c0 -144 -12 -163 -45 -74 -28 75 -61 118 -113 145 -35 19 -58 22 -147 23 l-105 0 0 -145 0 -145 25 -3 c58 -7 150 99 150 172 0 34 18 42 29 13 14 -36 8 -394 -6 -408 -10 -10 -13 -9 -16 2 -35 125 -65 170 -122 185 -58 14 -60 10 -60 -131 l0 -130 93 -3 c102 -3 148 11 210 63 34 28 74 97 86 148 5 20 12 27 24 25 15 -3 17 -19 20 -128 2 -109 0 -126 -15 -137 -22 -17 -664 -19 -694 -2 -27 14 -14 29 25 29 23 0 41 9 62 31 l29 30 0 234 c0 289 4 278 -133 314 -2 1 0 6 3 11 4 7 127 9 353 8 l347 -3 0 -124z m-5769 -1108 c46 -100 58 -125 114 -248 125 -271 131 -281 187 -291 23 -4 33 -12 33 -25 0 -18 -10 -19 -185 -19 -178 0 -185 1 -185 20 0 16 7 20 38 20 21 0 47 6 57 14 18 13 18 15 -4 67 -13 30 -28 60 -33 67 -7 8 -48 12 -139 12 l-128 0 -16 -30 c-29 -56 -11 -111 40 -124 18 -5 25 -12 23 -24 -3 -15 -20 -17 -131 -20 -122 -2 -127 -2 -127 18 0 15 8 22 30 26 66 14 99 65 215 329 7 17 27 60 44 97 17 37 31 70 31 72 0 2 13 34 30 70 18 41 35 66 45 66 10 0 32 -35 61 -97z m1092 73 c94 -31 143 -104 129 -193 -10 -62 -54 -94 -167 -125 -36 -10 -79 -18 -97 -18 -17 0 -34 -4 -38 -9 -6 -10 64 -46 108 -56 18 -4 39 -22 60 -52 83 -120 111 -147 163 -159 31 -6 49 -15 49 -25 0 -11 -21 -15 -105 -17 -58 -2 -115 0 -126 2 -13 4 -50 48 -92 108 -40 57 -89 126 -110 153 -37 50 -38 50 -100 53 -59 3 -62 2 -68 -23 -3 -14 -4 -66 -2 -115 5 -104 17 -125 82 -137 26 -6 41 -14 41 -23 0 -13 -32 -15 -202 -18 -194 -2 -203 -2 -203 17 0 15 10 20 45 26 75 11 79 24 83 265 4 239 -3 281 -51 310 -18 11 -42 20 -53 20 -22 0 -38 22 -26 35 4 4 147 5 317 2 259 -3 319 -7 363 -21z m762 6 c19 -9 46 -25 60 -35 36 -25 60 -21 97 15 22 21 36 29 43 22 14 -14 32 -296 20 -308 -12 -12 -36 17 -45 54 -20 76 -105 175 -192 223 -42 23 -140 23 -173 0 -74 -51 -94 -116 -95 -298 0 -152 9 -195 53 -247 104 -124 329 -67 415 106 26 52 47 65 47 31 0 -29 -46 -102 -95 -150 -65 -64 -123 -85 -230 -85 -151 0 -274 73 -344 205 -23 44 -26 61 -26 145 1 80 5 102 24 138 36 66 104 135 168 170 53 29 66 31 148 32 67 0 100 -5 125 -18z m715 -1 c0 -8 -19 -21 -42 -28 -58 -20 -74 -50 -80 -148 -9 -128 -13 -125 171 -125 131 0 155 2 160 16 11 29 6 188 -7 214 -8 16 -29 30 -57 40 -48 16 -64 30 -51 43 4 4 97 6 207 5 158 -2 199 -6 199 -16 0 -8 -22 -21 -50 -30 -33 -11 -54 -25 -62 -42 -9 -18 -13 -91 -13 -256 0 -219 1 -233 21 -258 13 -17 34 -28 60 -32 29 -5 39 -11 39 -25 0 -18 -11 -19 -200 -19 -189 0 -200 1 -200 19 0 14 10 20 38 25 67 10 77 31 77 160 l0 111 -162 3 -162 2 -7 -36 c-9 -47 1 -162 17 -197 9 -20 25 -31 58 -41 26 -7 46 -19 46 -27 0 -11 -36 -15 -197 -17 -188 -2 -198 -2 -198 16 0 14 9 21 36 25 20 4 47 16 60 28 24 22 24 23 24 266 0 244 0 244 -24 268 -13 13 -40 27 -60 30 -20 4 -39 11 -42 16 -15 25 16 29 204 27 162 -3 197 -6 197 -17z m980 1 c0 -8 -18 -20 -40 -28 -75 -25 -75 -26 -75 -298 0 -239 0 -243 23 -263 12 -12 38 -25 57 -30 20 -5 35 -16 35 -24 0 -12 -34 -14 -197 -17 -186 -2 -198 -1 -198 16 0 13 11 21 42 28 27 6 49 19 62 37 20 27 21 41 21 255 0 263 -2 269 -86 297 -48 16 -56 24 -42 39 4 3 95 5 202 4 156 -2 196 -6 196 -16z m450 -2 c0 -9 -11 -16 -30 -18 -74 -9 -80 -49 -25 -167 18 -39 43 -94 56 -122 77 -170 76 -168 92 -147 8 10 21 35 29 54 13 31 33 74 77 175 40 89 46 105 46 124 0 21 -24 49 -71 83 -43 30 -13 39 122 36 98 -2 124 -6 124 -17 0 -8 -9 -19 -20 -25 -90 -48 -105 -69 -190 -261 -45 -104 -57 -130 -65 -146 -5 -9 -27 -61 -50 -115 -62 -147 -74 -153 -117 -55 -14 31 -35 79 -48 106 -13 28 -40 86 -60 130 -20 44 -45 98 -55 120 -10 22 -29 63 -41 90 -35 77 -58 106 -106 127 -42 19 -50 28 -36 42 4 3 88 5 187 4 153 -3 181 -5 181 -18z m1159 14 c13 -5 16 -26 16 -129 0 -71 -4 -126 -10 -130 -5 -3 -26 28 -46 69 -57 122 -119 156 -280 156 -89 0 -86 6 -82 -165 l3 -120 33 -3 c23 -2 45 4 67 19 36 25 75 95 75 134 0 29 19 43 31 24 5 -8 8 -102 6 -209 -2 -176 -4 -195 -19 -198 -14 -3 -18 3 -19 25 -1 77 -82 167 -144 161 l-30 -3 -3 -127 -3 -127 27 -7 c47 -12 190 3 231 25 61 31 133 122 133 168 0 22 18 43 37 43 18 0 19 -250 1 -268 -9 -9 -101 -12 -354 -12 -291 0 -343 2 -347 15 -7 18 -2 21 45 30 28 5 43 16 58 40 18 30 20 49 20 259 l0 228 -29 29 c-16 16 -44 32 -61 35 -33 7 -45 18 -35 34 7 11 651 15 679 4z"/>
<path d="M2595 20180 c-12 -20 8 -28 81 -32 95 -5 154 -40 198 -118 l31 -55 0 -545 c0 -539 0 -545 -21 -585 -47 -87 -105 -123 -219 -133 -53 -5 -70 -11 -70 -22 0 -13 81 -15 670 -15 656 0 672 1 745 22 183 52 256 94 326 187 91 121 75 272 -41 393 -44 46 -155 108 -238 133 -165 51 -186 63 -129 76 46 10 185 66 224 90 56 36 108 84 137 129 22 35 26 50 26 120 0 64 -5 89 -24 124 -51 97 -155 170 -304 213 -69 20 -98 21 -729 25 -488 3 -658 1 -663 -7z m1182 -50 c110 -38 163 -104 183 -222 26 -152 -29 -301 -133 -361 -91 -52 -125 -58 -368 -55 l-224 3 -3 315 c-1 173 0 320 3 327 3 10 61 13 245 13 215 0 247 -2 297 -20z m-28 -715 c116 -35 200 -102 241 -191 31 -68 34 -228 5 -294 -43 -101 -117 -163 -234 -200 -61 -19 -88 -20 -296 -18 l-230 3 -3 354 c-2 277 1 357 10 364 22 15 445 0 507 -18z"/>
<path d="M6040 18040 c-26 -18 13 -37 89 -44 101 -10 163 -55 201 -146 22 -55 27 -1016 5 -1102 -29 -113 -76 -154 -208 -179 -48 -9 -91 -20 -95 -23 -22 -23 46 -26 509 -24 431 3 494 5 494 18 0 11 -13 16 -45 17 -77 4 -184 25 -210 41 -34 22 -51 40 -80 87 l-25 40 0 285 0 285 65 3 c180 9 325 -117 361 -315 13 -69 24 -93 44 -93 13 0 15 57 13 433 -3 370 -5 432 -18 432 -8 0 -19 -19 -28 -50 -54 -197 -103 -280 -195 -327 -54 -27 -209 -47 -231 -29 -14 12 -16 50 -14 330 l3 316 255 0 c236 0 260 -2 315 -22 112 -40 176 -83 239 -159 60 -72 115 -181 140 -274 33 -124 41 -145 56 -145 13 0 15 43 18 314 2 223 -1 318 -9 327 -10 12 -148 14 -823 14 -526 0 -816 -4 -826 -10z"/>
<path d="M10028 15993 c-8 -10 -18 -27 -21 -38 -6 -21 -80 -190 -170 -385 -13 -30 -44 -100 -67 -154 -23 -54 -45 -106 -49 -115 -24 -49 -79 -174 -130 -292 -141 -334 -257 -473 -418 -504 -32 -6 -51 -31 -35 -47 4 -4 141 -7 303 -6 283 3 294 4 294 22 0 15 -11 23 -48 32 -150 38 -198 183 -117 349 l35 70 318 0 318 0 19 -35 c21 -37 78 -163 100 -218 7 -19 14 -54 14 -78 2 -72 -40 -94 -179 -94 -72 0 -106 -15 -90 -40 4 -7 148 -10 435 -10 287 0 431 3 435 10 12 19 -17 40 -54 40 -58 0 -104 17 -150 56 -41 35 -81 108 -185 337 -14 31 -37 81 -50 110 -13 28 -39 84 -56 122 -18 39 -48 104 -67 145 -71 153 -82 177 -133 290 -28 63 -62 138 -75 165 -13 28 -42 91 -64 140 -69 151 -81 164 -113 128z m-58 -458 c22 -47 40 -87 40 -90 0 -2 20 -47 45 -99 25 -53 45 -98 45 -101 0 -4 64 -144 96 -209 8 -16 14 -37 14 -48 0 -17 -15 -18 -290 -18 -327 0 -307 -6 -266 82 50 106 86 188 86 193 0 3 14 35 31 72 16 38 36 82 43 98 7 17 21 48 31 70 31 69 44 99 49 118 12 38 37 16 76 -68z"/>
<path d="M5302 13517 c-9 -10 -12 -50 -10 -138 l3 -124 125 -3 c106 -2 130 0 160 16 39 21 70 72 70 117 0 39 -28 94 -60 116 -36 26 -269 39 -288 16z"/>
<path d="M3658 13520 c-15 -9 -18 -27 -18 -119 0 -144 1 -145 116 -139 101 5 146 23 169 68 30 57 12 155 -33 179 -29 15 -214 24 -234 11z"/>
<path d="M3646 13204 c-10 -25 -7 -230 4 -258 9 -25 13 -26 82 -26 137 0 205 35 227 117 13 48 12 54 -9 98 -33 68 -73 85 -199 85 -81 0 -100 -3 -105 -16z"/>
<path d="M4518 12380 c-105 -19 -174 -144 -172 -310 1 -109 26 -182 83 -240 38 -40 54 -49 93 -55 64 -10 123 2 158 31 68 58 107 179 97 306 -7 95 -21 138 -60 190 -52 68 -116 93 -199 78z"/>
<path d="M7970 12381 c-94 -19 -155 -110 -175 -266 -7 -59 14 -174 44 -232 29 -58 82 -100 135 -108 159 -24 256 90 256 303 0 205 -109 332 -260 303z"/>
<path d="M8812 12368 c-13 -13 -18 -222 -6 -252 5 -13 25 -16 123 -15 64 0 132 5 151 12 49 17 80 67 80 130 0 45 -4 54 -39 87 -21 20 -53 40 -71 44 -57 11 -225 7 -238 -6z"/>
<path d="M4225 10993 c-20 -43 -42 -90 -50 -106 -26 -51 -14 -58 94 -55 78 2 96 6 99 19 3 18 -81 204 -97 214 -6 3 -26 -27 -46 -72z"/>
<path d="M5090 11211 c-5 -11 -10 -68 -10 -126 0 -147 -2 -145 123 -144 165 0 237 45 237 146 0 106 -63 143 -244 143 -84 0 -97 -2 -106 -19z"/>
</g>
</svg>